%TF.GenerationSoftware,KiCad,Pcbnew,9.0.2*%
%TF.CreationDate,2025-06-30T15:38:40+07:00*%
%TF.ProjectId,PCB art,50434220-6172-4742-9e6b-696361645f70,rev?*%
%TF.SameCoordinates,Original*%
%TF.FileFunction,Legend,Bot*%
%TF.FilePolarity,Positive*%
%FSLAX46Y46*%
G04 Gerber Fmt 4.6, Leading zero omitted, Abs format (unit mm)*
G04 Created by KiCad (PCBNEW 9.0.2) date 2025-06-30 15:38:40*
%MOMM*%
%LPD*%
G01*
G04 APERTURE LIST*
G04 Aperture macros list*
%AMRoundRect*
0 Rectangle with rounded corners*
0 $1 Rounding radius*
0 $2 $3 $4 $5 $6 $7 $8 $9 X,Y pos of 4 corners*
0 Add a 4 corners polygon primitive as box body*
4,1,4,$2,$3,$4,$5,$6,$7,$8,$9,$2,$3,0*
0 Add four circle primitives for the rounded corners*
1,1,$1+$1,$2,$3*
1,1,$1+$1,$4,$5*
1,1,$1+$1,$6,$7*
1,1,$1+$1,$8,$9*
0 Add four rect primitives between the rounded corners*
20,1,$1+$1,$2,$3,$4,$5,0*
20,1,$1+$1,$4,$5,$6,$7,0*
20,1,$1+$1,$6,$7,$8,$9,0*
20,1,$1+$1,$8,$9,$2,$3,0*%
G04 Aperture macros list end*
%ADD10C,0.150000*%
%ADD11C,0.120000*%
%ADD12C,0.000000*%
%ADD13C,5.300000*%
%ADD14R,1.800000X1.800000*%
%ADD15C,1.800000*%
%ADD16C,2.000000*%
%ADD17RoundRect,0.102000X-0.611000X-0.611000X0.611000X-0.611000X0.611000X0.611000X-0.611000X0.611000X0*%
%ADD18C,1.426000*%
%ADD19R,5.100000X5.100000*%
%ADD20C,17.800000*%
%ADD21C,1.600000*%
%ADD22RoundRect,0.250000X0.550000X0.550000X-0.550000X0.550000X-0.550000X-0.550000X0.550000X-0.550000X0*%
G04 APERTURE END LIST*
D10*
X164137205Y-113953315D02*
X164232443Y-113905696D01*
X164232443Y-113905696D02*
X164375300Y-113905696D01*
X164375300Y-113905696D02*
X164518157Y-113953315D01*
X164518157Y-113953315D02*
X164613395Y-114048553D01*
X164613395Y-114048553D02*
X164661014Y-114143791D01*
X164661014Y-114143791D02*
X164708633Y-114334267D01*
X164708633Y-114334267D02*
X164708633Y-114477124D01*
X164708633Y-114477124D02*
X164661014Y-114667600D01*
X164661014Y-114667600D02*
X164613395Y-114762838D01*
X164613395Y-114762838D02*
X164518157Y-114858077D01*
X164518157Y-114858077D02*
X164375300Y-114905696D01*
X164375300Y-114905696D02*
X164280062Y-114905696D01*
X164280062Y-114905696D02*
X164137205Y-114858077D01*
X164137205Y-114858077D02*
X164089586Y-114810457D01*
X164089586Y-114810457D02*
X164089586Y-114477124D01*
X164089586Y-114477124D02*
X164280062Y-114477124D01*
X163661014Y-114905696D02*
X163661014Y-113905696D01*
X163661014Y-113905696D02*
X163089586Y-114905696D01*
X163089586Y-114905696D02*
X163089586Y-113905696D01*
X162613395Y-114905696D02*
X162613395Y-113905696D01*
X162613395Y-113905696D02*
X162375300Y-113905696D01*
X162375300Y-113905696D02*
X162232443Y-113953315D01*
X162232443Y-113953315D02*
X162137205Y-114048553D01*
X162137205Y-114048553D02*
X162089586Y-114143791D01*
X162089586Y-114143791D02*
X162041967Y-114334267D01*
X162041967Y-114334267D02*
X162041967Y-114477124D01*
X162041967Y-114477124D02*
X162089586Y-114667600D01*
X162089586Y-114667600D02*
X162137205Y-114762838D01*
X162137205Y-114762838D02*
X162232443Y-114858077D01*
X162232443Y-114858077D02*
X162375300Y-114905696D01*
X162375300Y-114905696D02*
X162613395Y-114905696D01*
X154270330Y-97198686D02*
X154127473Y-97246305D01*
X154127473Y-97246305D02*
X154079854Y-97293924D01*
X154079854Y-97293924D02*
X154032235Y-97389162D01*
X154032235Y-97389162D02*
X154032235Y-97532019D01*
X154032235Y-97532019D02*
X154079854Y-97627257D01*
X154079854Y-97627257D02*
X154127473Y-97674877D01*
X154127473Y-97674877D02*
X154222711Y-97722496D01*
X154222711Y-97722496D02*
X154603663Y-97722496D01*
X154603663Y-97722496D02*
X154603663Y-96722496D01*
X154603663Y-96722496D02*
X154270330Y-96722496D01*
X154270330Y-96722496D02*
X154175092Y-96770115D01*
X154175092Y-96770115D02*
X154127473Y-96817734D01*
X154127473Y-96817734D02*
X154079854Y-96912972D01*
X154079854Y-96912972D02*
X154079854Y-97008210D01*
X154079854Y-97008210D02*
X154127473Y-97103448D01*
X154127473Y-97103448D02*
X154175092Y-97151067D01*
X154175092Y-97151067D02*
X154270330Y-97198686D01*
X154270330Y-97198686D02*
X154603663Y-97198686D01*
X153175092Y-97722496D02*
X153175092Y-97198686D01*
X153175092Y-97198686D02*
X153222711Y-97103448D01*
X153222711Y-97103448D02*
X153317949Y-97055829D01*
X153317949Y-97055829D02*
X153508425Y-97055829D01*
X153508425Y-97055829D02*
X153603663Y-97103448D01*
X153175092Y-97674877D02*
X153270330Y-97722496D01*
X153270330Y-97722496D02*
X153508425Y-97722496D01*
X153508425Y-97722496D02*
X153603663Y-97674877D01*
X153603663Y-97674877D02*
X153651282Y-97579638D01*
X153651282Y-97579638D02*
X153651282Y-97484400D01*
X153651282Y-97484400D02*
X153603663Y-97389162D01*
X153603663Y-97389162D02*
X153508425Y-97341543D01*
X153508425Y-97341543D02*
X153270330Y-97341543D01*
X153270330Y-97341543D02*
X153175092Y-97293924D01*
X152841758Y-97055829D02*
X152460806Y-97055829D01*
X152698901Y-96722496D02*
X152698901Y-97579638D01*
X152698901Y-97579638D02*
X152651282Y-97674877D01*
X152651282Y-97674877D02*
X152556044Y-97722496D01*
X152556044Y-97722496D02*
X152460806Y-97722496D01*
X152270329Y-97055829D02*
X151889377Y-97055829D01*
X152127472Y-96722496D02*
X152127472Y-97579638D01*
X152127472Y-97579638D02*
X152079853Y-97674877D01*
X152079853Y-97674877D02*
X151984615Y-97722496D01*
X151984615Y-97722496D02*
X151889377Y-97722496D01*
X151175091Y-97674877D02*
X151270329Y-97722496D01*
X151270329Y-97722496D02*
X151460805Y-97722496D01*
X151460805Y-97722496D02*
X151556043Y-97674877D01*
X151556043Y-97674877D02*
X151603662Y-97579638D01*
X151603662Y-97579638D02*
X151603662Y-97198686D01*
X151603662Y-97198686D02*
X151556043Y-97103448D01*
X151556043Y-97103448D02*
X151460805Y-97055829D01*
X151460805Y-97055829D02*
X151270329Y-97055829D01*
X151270329Y-97055829D02*
X151175091Y-97103448D01*
X151175091Y-97103448D02*
X151127472Y-97198686D01*
X151127472Y-97198686D02*
X151127472Y-97293924D01*
X151127472Y-97293924D02*
X151603662Y-97389162D01*
X150698900Y-97722496D02*
X150698900Y-97055829D01*
X150698900Y-97246305D02*
X150651281Y-97151067D01*
X150651281Y-97151067D02*
X150603662Y-97103448D01*
X150603662Y-97103448D02*
X150508424Y-97055829D01*
X150508424Y-97055829D02*
X150413186Y-97055829D01*
X150175090Y-97055829D02*
X149936995Y-97722496D01*
X149698900Y-97055829D02*
X149936995Y-97722496D01*
X149936995Y-97722496D02*
X150032233Y-97960591D01*
X150032233Y-97960591D02*
X150079852Y-98008210D01*
X150079852Y-98008210D02*
X150175090Y-98055829D01*
X185173520Y-110247010D02*
X184697329Y-109913677D01*
X185173520Y-109675582D02*
X184173520Y-109675582D01*
X184173520Y-109675582D02*
X184173520Y-110056534D01*
X184173520Y-110056534D02*
X184221139Y-110151772D01*
X184221139Y-110151772D02*
X184268758Y-110199391D01*
X184268758Y-110199391D02*
X184363996Y-110247010D01*
X184363996Y-110247010D02*
X184506853Y-110247010D01*
X184506853Y-110247010D02*
X184602091Y-110199391D01*
X184602091Y-110199391D02*
X184649710Y-110151772D01*
X184649710Y-110151772D02*
X184697329Y-110056534D01*
X184697329Y-110056534D02*
X184697329Y-109675582D01*
X184268758Y-110627963D02*
X184221139Y-110675582D01*
X184221139Y-110675582D02*
X184173520Y-110770820D01*
X184173520Y-110770820D02*
X184173520Y-111008915D01*
X184173520Y-111008915D02*
X184221139Y-111104153D01*
X184221139Y-111104153D02*
X184268758Y-111151772D01*
X184268758Y-111151772D02*
X184363996Y-111199391D01*
X184363996Y-111199391D02*
X184459234Y-111199391D01*
X184459234Y-111199391D02*
X184602091Y-111151772D01*
X184602091Y-111151772D02*
X185173520Y-110580344D01*
X185173520Y-110580344D02*
X185173520Y-111199391D01*
X164545833Y-120894096D02*
X164212500Y-121894096D01*
X164212500Y-121894096D02*
X163879167Y-120894096D01*
X162974405Y-121798857D02*
X163022024Y-121846477D01*
X163022024Y-121846477D02*
X163164881Y-121894096D01*
X163164881Y-121894096D02*
X163260119Y-121894096D01*
X163260119Y-121894096D02*
X163402976Y-121846477D01*
X163402976Y-121846477D02*
X163498214Y-121751238D01*
X163498214Y-121751238D02*
X163545833Y-121656000D01*
X163545833Y-121656000D02*
X163593452Y-121465524D01*
X163593452Y-121465524D02*
X163593452Y-121322667D01*
X163593452Y-121322667D02*
X163545833Y-121132191D01*
X163545833Y-121132191D02*
X163498214Y-121036953D01*
X163498214Y-121036953D02*
X163402976Y-120941715D01*
X163402976Y-120941715D02*
X163260119Y-120894096D01*
X163260119Y-120894096D02*
X163164881Y-120894096D01*
X163164881Y-120894096D02*
X163022024Y-120941715D01*
X163022024Y-120941715D02*
X162974405Y-120989334D01*
X161974405Y-121798857D02*
X162022024Y-121846477D01*
X162022024Y-121846477D02*
X162164881Y-121894096D01*
X162164881Y-121894096D02*
X162260119Y-121894096D01*
X162260119Y-121894096D02*
X162402976Y-121846477D01*
X162402976Y-121846477D02*
X162498214Y-121751238D01*
X162498214Y-121751238D02*
X162545833Y-121656000D01*
X162545833Y-121656000D02*
X162593452Y-121465524D01*
X162593452Y-121465524D02*
X162593452Y-121322667D01*
X162593452Y-121322667D02*
X162545833Y-121132191D01*
X162545833Y-121132191D02*
X162498214Y-121036953D01*
X162498214Y-121036953D02*
X162402976Y-120941715D01*
X162402976Y-120941715D02*
X162260119Y-120894096D01*
X162260119Y-120894096D02*
X162164881Y-120894096D01*
X162164881Y-120894096D02*
X162022024Y-120941715D01*
X162022024Y-120941715D02*
X161974405Y-120989334D01*
X141500280Y-116268857D02*
X141547899Y-116316477D01*
X141547899Y-116316477D02*
X141690756Y-116364096D01*
X141690756Y-116364096D02*
X141785994Y-116364096D01*
X141785994Y-116364096D02*
X141928851Y-116316477D01*
X141928851Y-116316477D02*
X142024089Y-116221238D01*
X142024089Y-116221238D02*
X142071708Y-116126000D01*
X142071708Y-116126000D02*
X142119327Y-115935524D01*
X142119327Y-115935524D02*
X142119327Y-115792667D01*
X142119327Y-115792667D02*
X142071708Y-115602191D01*
X142071708Y-115602191D02*
X142024089Y-115506953D01*
X142024089Y-115506953D02*
X141928851Y-115411715D01*
X141928851Y-115411715D02*
X141785994Y-115364096D01*
X141785994Y-115364096D02*
X141690756Y-115364096D01*
X141690756Y-115364096D02*
X141547899Y-115411715D01*
X141547899Y-115411715D02*
X141500280Y-115459334D01*
X140547899Y-116364096D02*
X141119327Y-116364096D01*
X140833613Y-116364096D02*
X140833613Y-115364096D01*
X140833613Y-115364096D02*
X140928851Y-115506953D01*
X140928851Y-115506953D02*
X141024089Y-115602191D01*
X141024089Y-115602191D02*
X141119327Y-115649810D01*
X124061120Y-109837010D02*
X123584929Y-109503677D01*
X124061120Y-109265582D02*
X123061120Y-109265582D01*
X123061120Y-109265582D02*
X123061120Y-109646534D01*
X123061120Y-109646534D02*
X123108739Y-109741772D01*
X123108739Y-109741772D02*
X123156358Y-109789391D01*
X123156358Y-109789391D02*
X123251596Y-109837010D01*
X123251596Y-109837010D02*
X123394453Y-109837010D01*
X123394453Y-109837010D02*
X123489691Y-109789391D01*
X123489691Y-109789391D02*
X123537310Y-109741772D01*
X123537310Y-109741772D02*
X123584929Y-109646534D01*
X123584929Y-109646534D02*
X123584929Y-109265582D01*
X124061120Y-110789391D02*
X124061120Y-110217963D01*
X124061120Y-110503677D02*
X123061120Y-110503677D01*
X123061120Y-110503677D02*
X123203977Y-110408439D01*
X123203977Y-110408439D02*
X123299215Y-110313201D01*
X123299215Y-110313201D02*
X123346834Y-110217963D01*
D11*
%TO.C,GND*%
X164626101Y-116734877D02*
G75*
G02*
X162226101Y-116734877I-1200000J0D01*
G01*
X162226101Y-116734877D02*
G75*
G02*
X164626101Y-116734877I1200000J0D01*
G01*
D12*
%TO.C,G\u002A\u002A\u002A*%
G36*
X153288892Y-98581489D02*
G01*
X153395285Y-98622780D01*
X153440184Y-98646742D01*
X153530538Y-98711890D01*
X153609005Y-98792589D01*
X153674985Y-98886847D01*
X153727879Y-98992672D01*
X153767088Y-99108071D01*
X153792013Y-99231051D01*
X153802055Y-99359620D01*
X153796615Y-99491787D01*
X153775094Y-99625558D01*
X153736893Y-99758940D01*
X153709752Y-99829833D01*
X153648545Y-99955532D01*
X153574352Y-100067946D01*
X153484699Y-100171113D01*
X153407134Y-100242289D01*
X153301560Y-100317392D01*
X153191081Y-100373010D01*
X153077369Y-100408169D01*
X152992143Y-100420885D01*
X152879288Y-100419815D01*
X152770450Y-100397693D01*
X152666174Y-100354647D01*
X152567003Y-100290799D01*
X152553482Y-100280071D01*
X152473099Y-100201061D01*
X152404757Y-100106588D01*
X152349411Y-99999280D01*
X152308017Y-99881763D01*
X152281531Y-99756665D01*
X152270910Y-99626612D01*
X152277109Y-99494233D01*
X152288150Y-99417368D01*
X152322082Y-99273801D01*
X152371547Y-99138361D01*
X152435282Y-99012804D01*
X152512023Y-98898886D01*
X152600509Y-98798364D01*
X152699477Y-98712993D01*
X152807665Y-98644529D01*
X152923809Y-98594729D01*
X152967261Y-98581557D01*
X153077375Y-98561026D01*
X153183753Y-98560953D01*
X153288892Y-98581489D01*
G37*
G36*
X150136669Y-100186503D02*
G01*
X150248203Y-100219542D01*
X150357842Y-100271405D01*
X150463967Y-100341815D01*
X150564959Y-100430500D01*
X150625543Y-100495622D01*
X150719353Y-100620572D01*
X150794807Y-100756696D01*
X150851891Y-100903971D01*
X150882762Y-101027521D01*
X150900160Y-101160057D01*
X150902253Y-101291414D01*
X150888980Y-101417019D01*
X150860280Y-101532300D01*
X150848120Y-101567235D01*
X150816294Y-101645041D01*
X150780721Y-101710317D01*
X150737567Y-101769479D01*
X150682999Y-101828939D01*
X150671478Y-101840220D01*
X150581683Y-101912035D01*
X150482444Y-101965479D01*
X150376080Y-101999265D01*
X150338535Y-102006285D01*
X150239468Y-102013658D01*
X150140727Y-102003755D01*
X150038801Y-101976031D01*
X149930183Y-101929939D01*
X149924143Y-101926949D01*
X149805492Y-101855898D01*
X149697283Y-101767365D01*
X149600895Y-101663287D01*
X149517708Y-101545604D01*
X149449102Y-101416253D01*
X149396455Y-101277173D01*
X149361147Y-101130301D01*
X149347876Y-101023602D01*
X149346320Y-100890924D01*
X149361211Y-100763399D01*
X149391819Y-100643128D01*
X149437416Y-100532219D01*
X149497271Y-100432773D01*
X149570658Y-100346896D01*
X149656845Y-100276692D01*
X149703970Y-100248056D01*
X149806890Y-100203062D01*
X149914393Y-100177988D01*
X150024859Y-100172560D01*
X150136669Y-100186503D01*
G37*
G36*
X151175085Y-98569128D02*
G01*
X151292309Y-98601294D01*
X151404469Y-98654162D01*
X151511159Y-98727519D01*
X151611969Y-98821152D01*
X151688210Y-98911522D01*
X151770913Y-99038788D01*
X151836255Y-99177798D01*
X151883686Y-99327338D01*
X151912659Y-99486193D01*
X151920157Y-99598927D01*
X151913591Y-99729296D01*
X151891139Y-99853687D01*
X151853826Y-99970339D01*
X151802679Y-100077489D01*
X151738723Y-100173377D01*
X151662984Y-100256241D01*
X151576486Y-100324321D01*
X151480256Y-100375853D01*
X151375319Y-100409078D01*
X151345136Y-100415057D01*
X151271671Y-100423650D01*
X151200109Y-100421579D01*
X151120176Y-100408836D01*
X151009489Y-100376709D01*
X150900972Y-100324815D01*
X150797330Y-100253171D01*
X150697165Y-100160959D01*
X150690176Y-100153630D01*
X150601524Y-100046876D01*
X150528186Y-99929631D01*
X150468719Y-99799235D01*
X150421682Y-99653029D01*
X150414165Y-99623770D01*
X150405504Y-99584026D01*
X150399725Y-99545202D01*
X150396266Y-99501699D01*
X150394565Y-99447915D01*
X150394057Y-99378252D01*
X150395288Y-99294159D01*
X150400695Y-99213716D01*
X150411595Y-99143358D01*
X150429271Y-99077145D01*
X150455004Y-99009136D01*
X150490078Y-98933391D01*
X150543717Y-98841849D01*
X150616602Y-98752750D01*
X150701088Y-98678896D01*
X150795098Y-98621528D01*
X150896553Y-98581888D01*
X151003374Y-98561219D01*
X151113484Y-98560763D01*
X151175085Y-98569128D01*
G37*
G36*
X154218129Y-100175137D02*
G01*
X154330616Y-100189391D01*
X154435082Y-100222801D01*
X154530408Y-100274331D01*
X154615474Y-100342942D01*
X154689158Y-100427598D01*
X154750342Y-100527262D01*
X154797903Y-100640896D01*
X154830723Y-100767464D01*
X154839612Y-100834489D01*
X154843592Y-100926653D01*
X154840600Y-101024385D01*
X154830924Y-101119752D01*
X154814852Y-101204817D01*
X154813383Y-101210669D01*
X154767905Y-101351833D01*
X154705519Y-101486671D01*
X154628267Y-101611857D01*
X154538191Y-101724065D01*
X154437332Y-101819970D01*
X154423204Y-101831125D01*
X154361386Y-101873201D01*
X154289301Y-101914258D01*
X154213561Y-101951015D01*
X154140777Y-101980191D01*
X154077561Y-101998505D01*
X154061566Y-102001729D01*
X153978674Y-102012982D01*
X153901491Y-102012342D01*
X153819693Y-101999863D01*
X153814206Y-101998686D01*
X153705254Y-101964214D01*
X153606295Y-101911197D01*
X153518317Y-101840577D01*
X153442307Y-101753297D01*
X153379251Y-101650299D01*
X153330137Y-101532524D01*
X153318617Y-101496682D01*
X153306659Y-101452123D01*
X153298791Y-101408422D01*
X153293774Y-101358132D01*
X153290365Y-101293805D01*
X153289975Y-101283397D01*
X153292890Y-101136352D01*
X153312727Y-100998895D01*
X153350433Y-100866478D01*
X153406958Y-100734550D01*
X153456638Y-100643599D01*
X153542056Y-100519947D01*
X153639803Y-100413579D01*
X153750394Y-100323961D01*
X153874345Y-100250560D01*
X153904679Y-100236003D01*
X153996917Y-100200835D01*
X154089230Y-100181095D01*
X154190378Y-100174680D01*
X154218129Y-100175137D01*
G37*
G36*
X152168811Y-100461155D02*
G01*
X152306668Y-100481176D01*
X152435818Y-100520495D01*
X152555312Y-100578606D01*
X152664203Y-100655000D01*
X152761542Y-100749171D01*
X152846383Y-100860610D01*
X152849480Y-100865381D01*
X152883250Y-100921508D01*
X152913019Y-100980135D01*
X152940227Y-101045010D01*
X152966316Y-101119884D01*
X152992728Y-101208506D01*
X153020903Y-101314627D01*
X153029599Y-101348440D01*
X153060382Y-101460757D01*
X153091446Y-101559553D01*
X153124605Y-101647849D01*
X153161669Y-101728663D01*
X153204453Y-101805016D01*
X153254766Y-101879927D01*
X153314423Y-101956415D01*
X153385234Y-102037501D01*
X153469013Y-102126205D01*
X153567571Y-102225545D01*
X153588679Y-102246542D01*
X153669545Y-102328632D01*
X153736377Y-102399793D01*
X153791089Y-102462424D01*
X153835598Y-102518923D01*
X153871820Y-102571689D01*
X153901669Y-102623120D01*
X153927064Y-102675615D01*
X153951049Y-102736025D01*
X153985976Y-102859756D01*
X154004090Y-102984930D01*
X154005932Y-103036833D01*
X153995905Y-103146757D01*
X153966643Y-103247412D01*
X153918549Y-103338133D01*
X153852027Y-103418253D01*
X153767479Y-103487107D01*
X153665310Y-103544029D01*
X153655053Y-103548558D01*
X153596988Y-103570371D01*
X153528975Y-103591351D01*
X153460402Y-103608802D01*
X153400657Y-103620028D01*
X153394445Y-103620851D01*
X153296203Y-103626245D01*
X153185919Y-103619645D01*
X153068810Y-103601345D01*
X153049800Y-103597527D01*
X152951077Y-103578857D01*
X152855463Y-103563019D01*
X152758859Y-103549534D01*
X152657165Y-103537925D01*
X152546280Y-103527715D01*
X152422106Y-103518428D01*
X152280543Y-103509585D01*
X152218989Y-103506681D01*
X152108459Y-103504660D01*
X151989777Y-103506531D01*
X151859722Y-103512415D01*
X151715071Y-103522432D01*
X151552603Y-103536701D01*
X151509173Y-103540902D01*
X151438962Y-103548185D01*
X151379064Y-103555401D01*
X151323223Y-103563495D01*
X151265178Y-103573416D01*
X151198674Y-103586109D01*
X151117451Y-103602522D01*
X151069793Y-103611919D01*
X151016587Y-103620633D01*
X150970778Y-103625035D01*
X150924611Y-103625788D01*
X150870327Y-103623549D01*
X150774028Y-103613646D01*
X150654848Y-103588673D01*
X150544810Y-103551101D01*
X150446624Y-103502105D01*
X150363002Y-103442865D01*
X150296656Y-103374555D01*
X150278717Y-103350196D01*
X150229040Y-103259790D01*
X150197584Y-103159604D01*
X150184587Y-103051250D01*
X150190284Y-102936343D01*
X150214912Y-102816494D01*
X150226916Y-102775538D01*
X150246601Y-102717065D01*
X150268937Y-102663005D01*
X150295572Y-102610994D01*
X150328158Y-102558665D01*
X150368342Y-102503651D01*
X150417774Y-102443587D01*
X150478104Y-102376106D01*
X150550980Y-102298841D01*
X150638053Y-102209428D01*
X150701944Y-102144111D01*
X150772755Y-102070273D01*
X150831408Y-102006792D01*
X150879868Y-101951185D01*
X150920100Y-101900972D01*
X150954071Y-101853672D01*
X150983745Y-101806804D01*
X151011088Y-101757885D01*
X151038065Y-101704436D01*
X151066093Y-101643013D01*
X151093886Y-101572208D01*
X151119814Y-101493857D01*
X151145384Y-101403367D01*
X151172103Y-101296145D01*
X151176273Y-101278785D01*
X151207993Y-101160462D01*
X151242075Y-101058823D01*
X151280305Y-100969632D01*
X151324469Y-100888652D01*
X151376351Y-100811649D01*
X151386560Y-100798061D01*
X151477435Y-100696293D01*
X151580489Y-100611966D01*
X151694758Y-100545553D01*
X151819277Y-100497528D01*
X151953079Y-100468365D01*
X152095200Y-100458539D01*
X152168811Y-100461155D01*
G37*
G36*
X151407901Y-112511173D02*
G01*
X151538770Y-112511198D01*
X151678526Y-112511239D01*
X151827445Y-112511297D01*
X151985808Y-112511370D01*
X152153892Y-112511457D01*
X154079284Y-112512500D01*
X154103737Y-112527619D01*
X154120633Y-112539468D01*
X154141878Y-112561751D01*
X154154748Y-112588191D01*
X154160168Y-112620306D01*
X154160523Y-112629758D01*
X154159470Y-112653941D01*
X154155510Y-112671183D01*
X154154428Y-112673125D01*
X154148093Y-112683014D01*
X154136427Y-112700559D01*
X154119686Y-112725390D01*
X154098126Y-112757138D01*
X154072003Y-112795434D01*
X154041573Y-112839908D01*
X154007092Y-112890190D01*
X153968816Y-112945912D01*
X153927002Y-113006703D01*
X153881905Y-113072194D01*
X153833782Y-113142017D01*
X153782889Y-113215800D01*
X153729481Y-113293176D01*
X153673815Y-113373774D01*
X153616147Y-113457226D01*
X153556733Y-113543161D01*
X153495829Y-113631210D01*
X153433691Y-113721004D01*
X153370575Y-113812173D01*
X153306737Y-113904348D01*
X153242434Y-113997160D01*
X153177922Y-114090239D01*
X153113455Y-114183215D01*
X153049292Y-114275719D01*
X152985687Y-114367383D01*
X152922897Y-114457835D01*
X152861178Y-114546707D01*
X152800785Y-114633630D01*
X152741976Y-114718234D01*
X152685006Y-114800149D01*
X152630131Y-114879006D01*
X152577607Y-114954436D01*
X152527691Y-115026069D01*
X152480638Y-115093536D01*
X152436704Y-115156467D01*
X152396147Y-115214493D01*
X152359220Y-115267244D01*
X152326182Y-115314352D01*
X152297287Y-115355446D01*
X152272793Y-115390157D01*
X152252954Y-115418116D01*
X152238027Y-115438953D01*
X152228269Y-115452299D01*
X152223935Y-115457784D01*
X152216544Y-115464187D01*
X152187881Y-115481434D01*
X152157274Y-115489418D01*
X152126151Y-115488137D01*
X152095938Y-115477593D01*
X152068064Y-115457784D01*
X152066665Y-115456120D01*
X152059724Y-115446799D01*
X152047483Y-115429802D01*
X152030198Y-115405499D01*
X152008125Y-115374259D01*
X151981520Y-115336451D01*
X151950638Y-115292444D01*
X151915736Y-115242607D01*
X151877070Y-115187310D01*
X151834895Y-115126921D01*
X151789467Y-115061810D01*
X151741044Y-114992345D01*
X151689879Y-114918896D01*
X151636230Y-114841832D01*
X151580353Y-114761522D01*
X151522502Y-114678335D01*
X151462935Y-114592640D01*
X151401908Y-114504806D01*
X151339675Y-114415202D01*
X151276494Y-114324198D01*
X151212619Y-114232162D01*
X151148308Y-114139464D01*
X151083816Y-114046473D01*
X151019398Y-113953557D01*
X150955312Y-113861086D01*
X150891812Y-113769429D01*
X150829156Y-113678956D01*
X150767598Y-113590034D01*
X150707395Y-113503034D01*
X150648802Y-113418324D01*
X150592076Y-113336273D01*
X150537473Y-113257251D01*
X150485248Y-113181627D01*
X150435658Y-113109769D01*
X150388959Y-113042047D01*
X150345406Y-112978830D01*
X150305255Y-112920487D01*
X150268762Y-112867387D01*
X150236184Y-112819900D01*
X150207776Y-112778393D01*
X150183795Y-112743237D01*
X150164495Y-112714801D01*
X150150134Y-112693453D01*
X150140967Y-112679563D01*
X150137250Y-112673500D01*
X150135685Y-112669539D01*
X150131337Y-112647565D01*
X150131160Y-112621707D01*
X150134935Y-112596112D01*
X150142445Y-112574930D01*
X150156620Y-112554295D01*
X150180849Y-112532252D01*
X150209137Y-112517328D01*
X150209598Y-112517185D01*
X150212986Y-112516590D01*
X150218853Y-112516032D01*
X150227477Y-112515509D01*
X150239136Y-112515020D01*
X150254109Y-112514566D01*
X150272674Y-112514144D01*
X150295111Y-112513753D01*
X150321697Y-112513394D01*
X150352712Y-112513066D01*
X150388434Y-112512767D01*
X150429141Y-112512496D01*
X150475113Y-112512253D01*
X150526626Y-112512037D01*
X150583962Y-112511847D01*
X150647397Y-112511683D01*
X150717210Y-112511542D01*
X150793681Y-112511426D01*
X150877087Y-112511332D01*
X150967707Y-112511260D01*
X151065820Y-112511209D01*
X151171704Y-112511178D01*
X151285638Y-112511166D01*
X151407901Y-112511173D01*
G37*
D11*
%TO.C,Battery*%
X136394901Y-82517677D02*
X141194901Y-82517677D01*
X136394901Y-88017677D02*
X136394901Y-82517677D01*
X141194901Y-88017677D02*
X136394901Y-88017677D01*
X141394901Y-75767677D02*
X148094901Y-75767677D01*
X147994901Y-96117677D02*
X141194901Y-91317677D01*
X155894901Y-96117677D02*
X147994901Y-96117677D01*
X162494901Y-75767677D02*
X155794901Y-75767677D01*
X162694901Y-82517677D02*
X167494901Y-82517677D01*
X162744901Y-91317677D02*
X155894901Y-96117677D01*
X167494901Y-82517677D02*
X167494901Y-88017677D01*
X167494901Y-88017677D02*
X162694901Y-88017677D01*
X148094901Y-75767677D02*
G75*
G02*
X155791286Y-75766213I3850000J-9500000D01*
G01*
%TO.C,R2*%
X180978701Y-107143677D02*
X180978701Y-113683677D01*
X180978701Y-113683677D02*
X181308701Y-113683677D01*
X181308701Y-107143677D02*
X180978701Y-107143677D01*
X183388701Y-107143677D02*
X183718701Y-107143677D01*
X183718701Y-107143677D02*
X183718701Y-113683677D01*
X183718701Y-113683677D02*
X183388701Y-113683677D01*
%TO.C,VCC*%
X164463301Y-123723277D02*
G75*
G02*
X162063301Y-123723277I-1200000J0D01*
G01*
X162063301Y-123723277D02*
G75*
G02*
X164463301Y-123723277I1200000J0D01*
G01*
%TO.C,C1*%
X138733614Y-119376277D02*
X138733614Y-119942277D01*
X138773614Y-119142277D02*
X138773614Y-120176277D01*
X138813614Y-118982277D02*
X138813614Y-120336277D01*
X138853614Y-118854277D02*
X138853614Y-120464277D01*
X138893614Y-118745277D02*
X138893614Y-120573277D01*
X138933614Y-118648277D02*
X138933614Y-120670277D01*
X138973614Y-118561277D02*
X138973614Y-120757277D01*
X139013614Y-118482277D02*
X139013614Y-120836277D01*
X139053614Y-118408277D02*
X139053614Y-118619277D01*
X139053614Y-120699277D02*
X139053614Y-120910277D01*
X139093614Y-118340277D02*
X139093614Y-118619277D01*
X139093614Y-120699277D02*
X139093614Y-120978277D01*
X139133614Y-118276277D02*
X139133614Y-118619277D01*
X139133614Y-120699277D02*
X139133614Y-121042277D01*
X139173614Y-118216277D02*
X139173614Y-118619277D01*
X139173614Y-120699277D02*
X139173614Y-121102277D01*
X139213614Y-118160277D02*
X139213614Y-118619277D01*
X139213614Y-120699277D02*
X139213614Y-121158277D01*
X139253614Y-118106277D02*
X139253614Y-118619277D01*
X139253614Y-120699277D02*
X139253614Y-121212277D01*
X139293614Y-118055277D02*
X139293614Y-118619277D01*
X139293614Y-120699277D02*
X139293614Y-121263277D01*
X139333614Y-118007277D02*
X139333614Y-118619277D01*
X139333614Y-120699277D02*
X139333614Y-121311277D01*
X139373614Y-117960277D02*
X139373614Y-118619277D01*
X139373614Y-120699277D02*
X139373614Y-121358277D01*
X139413614Y-117916277D02*
X139413614Y-118619277D01*
X139413614Y-120699277D02*
X139413614Y-121402277D01*
X139453614Y-117874277D02*
X139453614Y-118619277D01*
X139453614Y-120699277D02*
X139453614Y-121444277D01*
X139493614Y-117834277D02*
X139493614Y-118619277D01*
X139493614Y-120699277D02*
X139493614Y-121484277D01*
X139533614Y-117795277D02*
X139533614Y-118619277D01*
X139533614Y-120699277D02*
X139533614Y-121523277D01*
X139573614Y-117758277D02*
X139573614Y-118619277D01*
X139573614Y-120699277D02*
X139573614Y-121560277D01*
X139613614Y-117723277D02*
X139613614Y-118619277D01*
X139613614Y-120699277D02*
X139613614Y-121595277D01*
X139653614Y-117689277D02*
X139653614Y-118619277D01*
X139653614Y-120699277D02*
X139653614Y-121629277D01*
X139693614Y-117656277D02*
X139693614Y-118619277D01*
X139693614Y-120699277D02*
X139693614Y-121662277D01*
X139733614Y-117624277D02*
X139733614Y-118619277D01*
X139733614Y-120699277D02*
X139733614Y-121694277D01*
X139773614Y-117594277D02*
X139773614Y-118619277D01*
X139773614Y-120699277D02*
X139773614Y-121724277D01*
X139813614Y-117565277D02*
X139813614Y-118619277D01*
X139813614Y-120699277D02*
X139813614Y-121753277D01*
X139853614Y-117537277D02*
X139853614Y-118619277D01*
X139853614Y-120699277D02*
X139853614Y-121781277D01*
X139893614Y-117510277D02*
X139893614Y-118619277D01*
X139893614Y-120699277D02*
X139893614Y-121808277D01*
X139933614Y-117484277D02*
X139933614Y-118619277D01*
X139933614Y-120699277D02*
X139933614Y-121834277D01*
X139973614Y-117460277D02*
X139973614Y-118619277D01*
X139973614Y-120699277D02*
X139973614Y-121858277D01*
X140013614Y-117436277D02*
X140013614Y-118619277D01*
X140013614Y-120699277D02*
X140013614Y-121882277D01*
X140053614Y-117413277D02*
X140053614Y-118619277D01*
X140053614Y-120699277D02*
X140053614Y-121905277D01*
X140093614Y-117391277D02*
X140093614Y-118619277D01*
X140093614Y-120699277D02*
X140093614Y-121927277D01*
X140133614Y-117370277D02*
X140133614Y-118619277D01*
X140133614Y-120699277D02*
X140133614Y-121948277D01*
X140173614Y-117350277D02*
X140173614Y-118619277D01*
X140173614Y-120699277D02*
X140173614Y-121968277D01*
X140213614Y-117330277D02*
X140213614Y-118619277D01*
X140213614Y-120699277D02*
X140213614Y-121988277D01*
X140253614Y-117312277D02*
X140253614Y-118619277D01*
X140253614Y-120699277D02*
X140253614Y-122006277D01*
X140293614Y-117294277D02*
X140293614Y-118619277D01*
X140293614Y-120699277D02*
X140293614Y-122024277D01*
X140333614Y-117277277D02*
X140333614Y-118619277D01*
X140333614Y-120699277D02*
X140333614Y-122041277D01*
X140373614Y-117261277D02*
X140373614Y-118619277D01*
X140373614Y-120699277D02*
X140373614Y-122057277D01*
X140413614Y-117246277D02*
X140413614Y-118619277D01*
X140413614Y-120699277D02*
X140413614Y-122072277D01*
X140453614Y-117231277D02*
X140453614Y-118619277D01*
X140453614Y-120699277D02*
X140453614Y-122087277D01*
X140493614Y-117217277D02*
X140493614Y-118619277D01*
X140493614Y-120699277D02*
X140493614Y-122101277D01*
X140533614Y-117204277D02*
X140533614Y-118619277D01*
X140533614Y-120699277D02*
X140533614Y-122114277D01*
X140573614Y-117192277D02*
X140573614Y-118619277D01*
X140573614Y-120699277D02*
X140573614Y-122126277D01*
X140613614Y-117180277D02*
X140613614Y-118619277D01*
X140613614Y-120699277D02*
X140613614Y-122138277D01*
X140653614Y-117169277D02*
X140653614Y-118619277D01*
X140653614Y-120699277D02*
X140653614Y-122149277D01*
X140693614Y-117158277D02*
X140693614Y-118619277D01*
X140693614Y-120699277D02*
X140693614Y-122160277D01*
X140733614Y-117149277D02*
X140733614Y-118619277D01*
X140733614Y-120699277D02*
X140733614Y-122169277D01*
X140773614Y-117140277D02*
X140773614Y-118619277D01*
X140773614Y-120699277D02*
X140773614Y-122178277D01*
X140813614Y-117131277D02*
X140813614Y-118619277D01*
X140813614Y-120699277D02*
X140813614Y-122187277D01*
X140853614Y-117123277D02*
X140853614Y-118619277D01*
X140853614Y-120699277D02*
X140853614Y-122195277D01*
X140893614Y-117116277D02*
X140893614Y-118619277D01*
X140893614Y-120699277D02*
X140893614Y-122202277D01*
X140933614Y-117110277D02*
X140933614Y-118619277D01*
X140933614Y-120699277D02*
X140933614Y-122208277D01*
X140973614Y-117104277D02*
X140973614Y-118619277D01*
X140973614Y-120699277D02*
X140973614Y-122214277D01*
X141013614Y-117099277D02*
X141013614Y-118619277D01*
X141013614Y-120699277D02*
X141013614Y-122219277D01*
X141053614Y-117094277D02*
X141053614Y-118619277D01*
X141053614Y-120699277D02*
X141053614Y-122224277D01*
X141093614Y-117090277D02*
X141093614Y-118619277D01*
X141093614Y-120699277D02*
X141093614Y-122228277D01*
X141133614Y-117087277D02*
X141133614Y-122231277D01*
X141173614Y-117084277D02*
X141173614Y-122234277D01*
X141213614Y-117082277D02*
X141213614Y-122236277D01*
X141253614Y-117080277D02*
X141253614Y-122238277D01*
X141293614Y-117079277D02*
X141293614Y-122239277D01*
X141333614Y-117079277D02*
X141333614Y-122239277D01*
X143888389Y-117934277D02*
X143888389Y-118434277D01*
X144138389Y-118184277D02*
X143638389Y-118184277D01*
X143953614Y-119659277D02*
G75*
G02*
X138713614Y-119659277I-2620000J0D01*
G01*
X138713614Y-119659277D02*
G75*
G02*
X143953614Y-119659277I2620000J0D01*
G01*
%TO.C,R1*%
X119866301Y-106686477D02*
X120196301Y-106686477D01*
X119866301Y-113226477D02*
X119866301Y-106686477D01*
X120196301Y-113226477D02*
X119866301Y-113226477D01*
X122276301Y-113226477D02*
X122606301Y-113226477D01*
X122606301Y-106686477D02*
X122276301Y-106686477D01*
X122606301Y-113226477D02*
X122606301Y-106686477D01*
D12*
%TO.C,G\u002A\u002A\u002A*%
G36*
X149499544Y-128123593D02*
G01*
X149540840Y-128151979D01*
X149562337Y-128177646D01*
X149572579Y-128205180D01*
X149575102Y-128244986D01*
X149570476Y-128305277D01*
X149555056Y-128350452D01*
X149526725Y-128386180D01*
X149514181Y-128395860D01*
X149473790Y-128409678D01*
X149429570Y-128406435D01*
X149387596Y-128388337D01*
X149353945Y-128357592D01*
X149334691Y-128316407D01*
X149330792Y-128291749D01*
X149333457Y-128236233D01*
X149350587Y-128188298D01*
X149378971Y-128150506D01*
X149415399Y-128125417D01*
X149456660Y-128115593D01*
X149499544Y-128123593D01*
G37*
G36*
X149941402Y-127747897D02*
G01*
X149946435Y-127750430D01*
X149976074Y-127771005D01*
X149994759Y-127793067D01*
X150005802Y-127828063D01*
X150005603Y-127876910D01*
X149989594Y-127920859D01*
X149959433Y-127952442D01*
X149942458Y-127959799D01*
X149906574Y-127969743D01*
X149864145Y-127977625D01*
X149834158Y-127983568D01*
X149776152Y-128001391D01*
X149722719Y-128024561D01*
X149717214Y-128027416D01*
X149657435Y-128052991D01*
X149609730Y-128061098D01*
X149570815Y-128051743D01*
X149537406Y-128024934D01*
X149521937Y-128004757D01*
X149504955Y-127959462D01*
X149511353Y-127913143D01*
X149541124Y-127866150D01*
X149577128Y-127833686D01*
X149633207Y-127799255D01*
X149698616Y-127770669D01*
X149767748Y-127749583D01*
X149834994Y-127737655D01*
X149894748Y-127736541D01*
X149941402Y-127747897D01*
G37*
G36*
X154001215Y-127354167D02*
G01*
X154152125Y-127366073D01*
X154294173Y-127399616D01*
X154426981Y-127454641D01*
X154550170Y-127530995D01*
X154663359Y-127628523D01*
X154700754Y-127667472D01*
X154769172Y-127750374D01*
X154824496Y-127837345D01*
X154869129Y-127933165D01*
X154905476Y-128042612D01*
X154935938Y-128170462D01*
X154938384Y-128186989D01*
X154941288Y-128232677D01*
X154941882Y-128289865D01*
X154940297Y-128350765D01*
X154936668Y-128407590D01*
X154931127Y-128452551D01*
X154924101Y-128488224D01*
X154883506Y-128627155D01*
X154824590Y-128757526D01*
X154803086Y-128799754D01*
X154785200Y-128849281D01*
X154782034Y-128892944D01*
X154793425Y-128937871D01*
X154819209Y-128991195D01*
X154855183Y-129063098D01*
X154906209Y-129202402D01*
X154935226Y-129344267D01*
X154942524Y-129486576D01*
X154928392Y-129627211D01*
X154893120Y-129764056D01*
X154836998Y-129894993D01*
X154760314Y-130017905D01*
X154663359Y-130130676D01*
X154654256Y-130139669D01*
X154540212Y-130235427D01*
X154416202Y-130309997D01*
X154282604Y-130363226D01*
X154139798Y-130394959D01*
X153988162Y-130405043D01*
X153977806Y-130404942D01*
X153827492Y-130391948D01*
X153686692Y-130357625D01*
X153555865Y-130302258D01*
X153435469Y-130226133D01*
X153325962Y-130129537D01*
X153227804Y-130012757D01*
X153141451Y-129876078D01*
X153113476Y-129827231D01*
X153062018Y-129750874D01*
X153009734Y-129693337D01*
X152953277Y-129651855D01*
X152889297Y-129623661D01*
X152814446Y-129605990D01*
X152806820Y-129605075D01*
X152772640Y-129602997D01*
X152718418Y-129601154D01*
X152646571Y-129599548D01*
X152559514Y-129598178D01*
X152459663Y-129597045D01*
X152349433Y-129596148D01*
X152231241Y-129595487D01*
X152107502Y-129595063D01*
X151980631Y-129594874D01*
X151853045Y-129594923D01*
X151727158Y-129595207D01*
X151605388Y-129595728D01*
X151490148Y-129596485D01*
X151383856Y-129597478D01*
X151288927Y-129598708D01*
X151207777Y-129600174D01*
X151142820Y-129601877D01*
X151096474Y-129603815D01*
X151071153Y-129605990D01*
X151030073Y-129614178D01*
X150961379Y-129637060D01*
X150901788Y-129671925D01*
X150847952Y-129721540D01*
X150796522Y-129788669D01*
X150744149Y-129876078D01*
X150696618Y-129956331D01*
X150605366Y-130080105D01*
X150502857Y-130183713D01*
X150388249Y-130267839D01*
X150260697Y-130333162D01*
X150119357Y-130380365D01*
X150075588Y-130389865D01*
X149978602Y-130401903D01*
X149874116Y-130405285D01*
X149771618Y-130399897D01*
X149680594Y-130385625D01*
X149679770Y-130385437D01*
X149545611Y-130343022D01*
X149417332Y-130279790D01*
X149298585Y-130198245D01*
X149193022Y-130100892D01*
X149104293Y-129990237D01*
X149087950Y-129965317D01*
X149020284Y-129837261D01*
X148973705Y-129701756D01*
X148948324Y-129561351D01*
X148945504Y-129462484D01*
X149189182Y-129462484D01*
X149194752Y-129550914D01*
X149207567Y-129633724D01*
X149227001Y-129702392D01*
X149234915Y-129722174D01*
X149293233Y-129834088D01*
X149367906Y-129932153D01*
X149456514Y-130014999D01*
X149556635Y-130081258D01*
X149665847Y-130129560D01*
X149781729Y-130158535D01*
X149901859Y-130166814D01*
X150023816Y-130153027D01*
X150075083Y-130140783D01*
X150190570Y-130098951D01*
X150293640Y-130039228D01*
X150385743Y-129960464D01*
X150468326Y-129861510D01*
X150542836Y-129741218D01*
X150611435Y-129630170D01*
X150687374Y-129539302D01*
X150772019Y-129468084D01*
X150867346Y-129414857D01*
X150975327Y-129377964D01*
X150982688Y-129376527D01*
X151017572Y-129372945D01*
X151072735Y-129369748D01*
X151145876Y-129366935D01*
X151234694Y-129364507D01*
X151336888Y-129362464D01*
X151450158Y-129360805D01*
X151572201Y-129359531D01*
X151700718Y-129358641D01*
X151833406Y-129358136D01*
X151967967Y-129358016D01*
X152102097Y-129358280D01*
X152233496Y-129358929D01*
X152359864Y-129359962D01*
X152478900Y-129361380D01*
X152588301Y-129363182D01*
X152685769Y-129365369D01*
X152769000Y-129367941D01*
X152835695Y-129370897D01*
X152883553Y-129374238D01*
X152910272Y-129377964D01*
X153017326Y-129414448D01*
X153112759Y-129467518D01*
X153197493Y-129538564D01*
X153273503Y-129629245D01*
X153342763Y-129741218D01*
X153372424Y-129793185D01*
X153450069Y-129904591D01*
X153536379Y-129995129D01*
X153632803Y-130065948D01*
X153740788Y-130118198D01*
X153861783Y-130153027D01*
X153882012Y-130156894D01*
X154003833Y-130166930D01*
X154123427Y-130155128D01*
X154238371Y-130122857D01*
X154346244Y-130071485D01*
X154444625Y-130002384D01*
X154531092Y-129916921D01*
X154603223Y-129816468D01*
X154658598Y-129702392D01*
X154673944Y-129651830D01*
X154688406Y-129571639D01*
X154695774Y-129483781D01*
X154695422Y-129396777D01*
X154686725Y-129319147D01*
X154686590Y-129318438D01*
X154676049Y-129279891D01*
X154657432Y-129227465D01*
X154633330Y-129167957D01*
X154606333Y-129108164D01*
X154582431Y-129057654D01*
X154562356Y-129012419D01*
X154549654Y-128977682D01*
X154542654Y-128947757D01*
X154539681Y-128916958D01*
X154539062Y-128879600D01*
X154539469Y-128847595D01*
X154541959Y-128816118D01*
X154548212Y-128786411D01*
X154559900Y-128752788D01*
X154578696Y-128709558D01*
X154606274Y-128651035D01*
X154607536Y-128648387D01*
X154634194Y-128589389D01*
X154657729Y-128531891D01*
X154675631Y-128482356D01*
X154685393Y-128447243D01*
X154688257Y-128429310D01*
X154693419Y-128373368D01*
X154695661Y-128308409D01*
X154694995Y-128242502D01*
X154691430Y-128183718D01*
X154684978Y-128140129D01*
X154684591Y-128138503D01*
X154645210Y-128021346D01*
X154587151Y-127915015D01*
X154512842Y-127821086D01*
X154424714Y-127741134D01*
X154325194Y-127676734D01*
X154216712Y-127629462D01*
X154101697Y-127600894D01*
X153982578Y-127592606D01*
X153861783Y-127606172D01*
X153810516Y-127618416D01*
X153695030Y-127660248D01*
X153591959Y-127719971D01*
X153499856Y-127798736D01*
X153417273Y-127897689D01*
X153342763Y-128017981D01*
X153274164Y-128129029D01*
X153198225Y-128219897D01*
X153113580Y-128291115D01*
X153018254Y-128344342D01*
X152910272Y-128381235D01*
X152902911Y-128382672D01*
X152868027Y-128386254D01*
X152812864Y-128389451D01*
X152739723Y-128392264D01*
X152650905Y-128394692D01*
X152548711Y-128396735D01*
X152435441Y-128398394D01*
X152313398Y-128399668D01*
X152184881Y-128400558D01*
X152052193Y-128401063D01*
X151917633Y-128401183D01*
X151783502Y-128400919D01*
X151652103Y-128400270D01*
X151525735Y-128399237D01*
X151406699Y-128397819D01*
X151297298Y-128396017D01*
X151199831Y-128393830D01*
X151116599Y-128391258D01*
X151049904Y-128388302D01*
X151002046Y-128384961D01*
X150975327Y-128381235D01*
X150868273Y-128344751D01*
X150772840Y-128291681D01*
X150688106Y-128220635D01*
X150612096Y-128129955D01*
X150542836Y-128017981D01*
X150513175Y-127966014D01*
X150435530Y-127854609D01*
X150349220Y-127764070D01*
X150252796Y-127693251D01*
X150144811Y-127641001D01*
X150023816Y-127606172D01*
X150003587Y-127602305D01*
X149881766Y-127592269D01*
X149762172Y-127604071D01*
X149647228Y-127636343D01*
X149539355Y-127687714D01*
X149440974Y-127756815D01*
X149354507Y-127842278D01*
X149282376Y-127942732D01*
X149227001Y-128056807D01*
X149211655Y-128107369D01*
X149197193Y-128187560D01*
X149189825Y-128275418D01*
X149190177Y-128362422D01*
X149198874Y-128440052D01*
X149199009Y-128440761D01*
X149209550Y-128479308D01*
X149228167Y-128531734D01*
X149252269Y-128591242D01*
X149279266Y-128651035D01*
X149303168Y-128701545D01*
X149323243Y-128746780D01*
X149335945Y-128781517D01*
X149342945Y-128811442D01*
X149345918Y-128842241D01*
X149346537Y-128879600D01*
X149346128Y-128911690D01*
X149343634Y-128943140D01*
X149337374Y-128972827D01*
X149325675Y-129006436D01*
X149306863Y-129049653D01*
X149279266Y-129108164D01*
X149278593Y-129109573D01*
X149251636Y-129169439D01*
X149227637Y-129228856D01*
X149209186Y-129281024D01*
X149198874Y-129319147D01*
X149191481Y-129376953D01*
X149189182Y-129462484D01*
X148945504Y-129462484D01*
X148944252Y-129418592D01*
X148961601Y-129276027D01*
X149000483Y-129136205D01*
X149061009Y-129001673D01*
X149082907Y-128957293D01*
X149099994Y-128912222D01*
X149106251Y-128879600D01*
X149101402Y-128851809D01*
X149085513Y-128807904D01*
X149061009Y-128757526D01*
X149029074Y-128693555D01*
X148978434Y-128555542D01*
X148949802Y-128414442D01*
X148942857Y-128272495D01*
X148957280Y-128131944D01*
X148992749Y-127995030D01*
X149048946Y-127863994D01*
X149125549Y-127741078D01*
X149222240Y-127628523D01*
X149231344Y-127619530D01*
X149345387Y-127523772D01*
X149469397Y-127449202D01*
X149602995Y-127395974D01*
X149745801Y-127364240D01*
X149881766Y-127355198D01*
X149897437Y-127354156D01*
X149907793Y-127354257D01*
X150058107Y-127367251D01*
X150198907Y-127401574D01*
X150329734Y-127456942D01*
X150450130Y-127533066D01*
X150559637Y-127629662D01*
X150657796Y-127746442D01*
X150744149Y-127883121D01*
X150772123Y-127931969D01*
X150823581Y-128008326D01*
X150875865Y-128065862D01*
X150932322Y-128107345D01*
X150996302Y-128135538D01*
X151071153Y-128153209D01*
X151078779Y-128154124D01*
X151112959Y-128156202D01*
X151167181Y-128158045D01*
X151239028Y-128159651D01*
X151326085Y-128161021D01*
X151425936Y-128162154D01*
X151536166Y-128163051D01*
X151654358Y-128163712D01*
X151778097Y-128164137D01*
X151904968Y-128164325D01*
X152032555Y-128164277D01*
X152158441Y-128163992D01*
X152280212Y-128163471D01*
X152395451Y-128162714D01*
X152501743Y-128161721D01*
X152596672Y-128160491D01*
X152677822Y-128159025D01*
X152742779Y-128157323D01*
X152789125Y-128155384D01*
X152814446Y-128153209D01*
X152855526Y-128145021D01*
X152924220Y-128122139D01*
X152983811Y-128087274D01*
X153037647Y-128037660D01*
X153089077Y-127970531D01*
X153141451Y-127883121D01*
X153146835Y-127873389D01*
X153233990Y-127738029D01*
X153332920Y-127622586D01*
X153443167Y-127527347D01*
X153564274Y-127452598D01*
X153695780Y-127398626D01*
X153837229Y-127365717D01*
X153988162Y-127354156D01*
X154001215Y-127354167D01*
G37*
%TD*%
%LPC*%
D13*
%TO.C,REF\u002A\u002A*%
X128475301Y-85166077D03*
%TD*%
D14*
%TO.C,^*%
X164237701Y-95789277D03*
D15*
X166777701Y-95789277D03*
%TD*%
D16*
%TO.C,L*%
X114763301Y-97289277D03*
X121263301Y-97289277D03*
X114763301Y-101789277D03*
X121263301Y-101789277D03*
%TD*%
%TO.C,R*%
X182347301Y-97289277D03*
X188847301Y-97289277D03*
X182347301Y-101789277D03*
X188847301Y-101789277D03*
%TD*%
D17*
%TO.C,<>*%
X149723301Y-108432477D03*
D18*
X152263301Y-105892477D03*
X154803301Y-108432477D03*
%TD*%
D14*
%TO.C,^*%
X136856501Y-95789277D03*
D15*
X139396501Y-95789277D03*
%TD*%
D16*
%TO.C,|

*%
X148763301Y-120797677D03*
X155263301Y-120797677D03*
X148763301Y-125297677D03*
X155263301Y-125297677D03*
%TD*%
%TO.C,GND*%
X163426101Y-116734877D03*
%TD*%
D19*
%TO.C,Battery*%
X164744901Y-85267677D03*
X139144901Y-85267677D03*
D20*
X151944901Y-85267677D03*
%TD*%
D21*
%TO.C,R2*%
X182348701Y-106603677D03*
X182348701Y-114223677D03*
%TD*%
D16*
%TO.C,VCC*%
X163263301Y-123723277D03*
%TD*%
D22*
%TO.C,C1*%
X142583614Y-119659277D03*
D21*
X140083614Y-119659277D03*
%TD*%
%TO.C,R1*%
X121236301Y-113766477D03*
X121236301Y-106146477D03*
%TD*%
%LPD*%
M02*
