M48
; DRILL file {KiCad 9.0.2} date 2025-06-30T00:25:41+0700
; FORMAT={-:-/ absolute / metric / decimal}
; #@! TF.CreationDate,2025-06-30T00:25:41+07:00
; #@! TF.GenerationSoftware,Kicad,Pcbnew,9.0.2
; #@! TF.FileFunction,MixedPlating,1,2
FMAT,2
METRIC
; #@! TA.AperFunction,Plated,PTH,ComponentDrill
T1C0.714
; #@! TA.AperFunction,Plated,PTH,ComponentDrill
T2C0.800
; #@! TA.AperFunction,Plated,PTH,ComponentDrill
T3C0.900
; #@! TA.AperFunction,Plated,PTH,ComponentDrill
T4C1.100
; #@! TA.AperFunction,NonPlated,NPTH,ComponentDrill
T5C5.300
%
G90
G05
T1
X149.723Y-108.432
X152.263Y-105.892
X154.803Y-108.432
T2
X121.236Y-106.146
X121.236Y-113.766
X140.084Y-119.659
X142.584Y-119.659
X182.349Y-106.604
X182.349Y-114.224
T3
X136.857Y-95.789
X139.397Y-95.789
X164.238Y-95.789
X166.778Y-95.789
T4
X114.763Y-97.289
X114.763Y-101.789
X121.263Y-97.289
X121.263Y-101.789
X148.763Y-120.798
X148.763Y-125.298
X155.263Y-120.798
X155.263Y-125.298
X182.347Y-97.289
X182.347Y-101.789
X188.847Y-97.289
X188.847Y-101.789
T5
X128.475Y-85.166
M30
