%TF.GenerationSoftware,KiCad,Pcbnew,9.0.2*%
%TF.CreationDate,2025-06-30T15:38:39+07:00*%
%TF.ProjectId,PCB art,50434220-6172-4742-9e6b-696361645f70,rev?*%
%TF.SameCoordinates,Original*%
%TF.FileFunction,Copper,L1,Top*%
%TF.FilePolarity,Positive*%
%FSLAX46Y46*%
G04 Gerber Fmt 4.6, Leading zero omitted, Abs format (unit mm)*
G04 Created by KiCad (PCBNEW 9.0.2) date 2025-06-30 15:38:39*
%MOMM*%
%LPD*%
G01*
G04 APERTURE LIST*
G04 Aperture macros list*
%AMRoundRect*
0 Rectangle with rounded corners*
0 $1 Rounding radius*
0 $2 $3 $4 $5 $6 $7 $8 $9 X,Y pos of 4 corners*
0 Add a 4 corners polygon primitive as box body*
4,1,4,$2,$3,$4,$5,$6,$7,$8,$9,$2,$3,0*
0 Add four circle primitives for the rounded corners*
1,1,$1+$1,$2,$3*
1,1,$1+$1,$4,$5*
1,1,$1+$1,$6,$7*
1,1,$1+$1,$8,$9*
0 Add four rect primitives between the rounded corners*
20,1,$1+$1,$2,$3,$4,$5,0*
20,1,$1+$1,$4,$5,$6,$7,0*
20,1,$1+$1,$6,$7,$8,$9,0*
20,1,$1+$1,$8,$9,$2,$3,0*%
G04 Aperture macros list end*
%TA.AperFunction,ComponentPad*%
%ADD10R,1.800000X1.800000*%
%TD*%
%TA.AperFunction,ComponentPad*%
%ADD11C,1.800000*%
%TD*%
%TA.AperFunction,ComponentPad*%
%ADD12C,2.000000*%
%TD*%
%TA.AperFunction,ComponentPad*%
%ADD13R,1.222000X1.222000*%
%TD*%
%TA.AperFunction,ComponentPad*%
%ADD14C,1.222000*%
%TD*%
%TA.AperFunction,ComponentPad*%
%ADD15C,1.600000*%
%TD*%
%TA.AperFunction,ComponentPad*%
%ADD16RoundRect,0.250000X0.550000X0.550000X-0.550000X0.550000X-0.550000X-0.550000X0.550000X-0.550000X0*%
%TD*%
%TA.AperFunction,Conductor*%
%ADD17C,0.200000*%
%TD*%
G04 APERTURE END LIST*
D10*
%TO.P,^,1,K*%
%TO.N,Net-(BT1--)*%
X164237701Y-95789277D03*
D11*
%TO.P,^,2,A*%
%TO.N,Net-(D2-A)*%
X166777701Y-95789277D03*
%TD*%
D12*
%TO.P,L,1,1*%
%TO.N,Net-(BT1-+)*%
X114763301Y-97289277D03*
X121263301Y-97289277D03*
%TO.P,L,2,2*%
%TO.N,Net-(R1-Pad2)*%
X114763301Y-101789277D03*
X121263301Y-101789277D03*
%TD*%
%TO.P,R,1,1*%
%TO.N,Net-(R2-Pad1)*%
X182347301Y-97289277D03*
X188847301Y-97289277D03*
%TO.P,R,2,2*%
%TO.N,Net-(BT1-+)*%
X182347301Y-101789277D03*
X188847301Y-101789277D03*
%TD*%
D13*
%TO.P,<>,1*%
%TO.N,Net-(BT1-+)*%
X149723301Y-108432477D03*
D14*
%TO.P,<>,2*%
X152263301Y-105892477D03*
%TO.P,<>,3*%
%TO.N,Net-(BT1--)*%
X154803301Y-108432477D03*
%TD*%
D10*
%TO.P,^,1,K*%
%TO.N,Net-(BT1--)*%
X136856501Y-95789277D03*
D11*
%TO.P,^,2,A*%
%TO.N,Net-(D1-A)*%
X139396501Y-95789277D03*
%TD*%
D12*
%TO.P,|

,1,1*%
%TO.N,Net-(BT1-+)*%
X148763301Y-120797677D03*
X155263301Y-120797677D03*
%TO.P,|

,2,2*%
%TO.N,Net-(M1-+)*%
X148763301Y-125297677D03*
X155263301Y-125297677D03*
%TD*%
D15*
%TO.P,R2,1*%
%TO.N,Net-(R2-Pad1)*%
X182348701Y-106603677D03*
%TO.P,R2,2*%
%TO.N,Net-(D2-A)*%
X182348701Y-114223677D03*
%TD*%
D16*
%TO.P,C1,1*%
%TO.N,Net-(M1-+)*%
X142583614Y-119659277D03*
D15*
%TO.P,C1,2*%
%TO.N,Net-(BT1--)*%
X140083614Y-119659277D03*
%TD*%
%TO.P,R1,1*%
%TO.N,Net-(D1-A)*%
X121236301Y-113766477D03*
%TO.P,R1,2*%
%TO.N,Net-(R1-Pad2)*%
X121236301Y-106146477D03*
%TD*%
D17*
%TO.N,Net-(BT1-+)*%
X129866501Y-105892477D02*
X152263301Y-105892477D01*
X182347301Y-101789277D02*
X182311701Y-101789277D01*
X182347301Y-101789277D02*
X178244101Y-105892477D01*
X178244101Y-105892477D02*
X152263301Y-105892477D01*
X121263301Y-97289277D02*
X129866501Y-105892477D01*
X188847301Y-101789277D02*
X182347301Y-101789277D01*
X114763301Y-97289277D02*
X121263301Y-97289277D01*
%TO.N,Net-(BT1--)*%
X140083614Y-119659277D02*
X140272101Y-119659277D01*
X140272101Y-119659277D02*
X151498901Y-108432477D01*
X151498901Y-108432477D02*
X154803301Y-108432477D01*
%TD*%
M02*
