%TF.GenerationSoftware,KiCad,Pcbnew,9.0.2*%
%TF.CreationDate,2025-06-28T23:14:17+07:00*%
%TF.ProjectId,PCB art,50434220-6172-4742-9e6b-696361645f70,rev?*%
%TF.SameCoordinates,Original*%
%TF.FileFunction,Copper,L2,Bot*%
%TF.FilePolarity,Positive*%
%FSLAX46Y46*%
G04 Gerber Fmt 4.6, Leading zero omitted, Abs format (unit mm)*
G04 Created by KiCad (PCBNEW 9.0.2) date 2025-06-28 23:14:17*
%MOMM*%
%LPD*%
G01*
G04 APERTURE LIST*
G04 Aperture macros list*
%AMRoundRect*
0 Rectangle with rounded corners*
0 $1 Rounding radius*
0 $2 $3 $4 $5 $6 $7 $8 $9 X,Y pos of 4 corners*
0 Add a 4 corners polygon primitive as box body*
4,1,4,$2,$3,$4,$5,$6,$7,$8,$9,$2,$3,0*
0 Add four circle primitives for the rounded corners*
1,1,$1+$1,$2,$3*
1,1,$1+$1,$4,$5*
1,1,$1+$1,$6,$7*
1,1,$1+$1,$8,$9*
0 Add four rect primitives between the rounded corners*
20,1,$1+$1,$2,$3,$4,$5,0*
20,1,$1+$1,$4,$5,$6,$7,0*
20,1,$1+$1,$6,$7,$8,$9,0*
20,1,$1+$1,$8,$9,$2,$3,0*%
G04 Aperture macros list end*
%TA.AperFunction,SMDPad,CuDef*%
%ADD10C,17.800000*%
%TD*%
%TA.AperFunction,SMDPad,CuDef*%
%ADD11R,5.100000X5.100000*%
%TD*%
%TA.AperFunction,ComponentPad*%
%ADD12R,1.222000X1.222000*%
%TD*%
%TA.AperFunction,ComponentPad*%
%ADD13C,1.222000*%
%TD*%
%TA.AperFunction,ComponentPad*%
%ADD14R,1.800000X1.800000*%
%TD*%
%TA.AperFunction,ComponentPad*%
%ADD15C,1.800000*%
%TD*%
%TA.AperFunction,ComponentPad*%
%ADD16C,2.000000*%
%TD*%
%TA.AperFunction,SMDPad,CuDef*%
%ADD17C,2.000000*%
%TD*%
%TA.AperFunction,ComponentPad*%
%ADD18C,1.600000*%
%TD*%
%TA.AperFunction,ComponentPad*%
%ADD19RoundRect,0.250000X0.550000X0.550000X-0.550000X0.550000X-0.550000X-0.550000X0.550000X-0.550000X0*%
%TD*%
%TA.AperFunction,ComponentPad*%
%ADD20R,1.050000X1.500000*%
%TD*%
%TA.AperFunction,ComponentPad*%
%ADD21O,1.050000X1.500000*%
%TD*%
%TA.AperFunction,Conductor*%
%ADD22C,0.200000*%
%TD*%
G04 APERTURE END LIST*
D10*
%TO.P,BT1,2,-*%
%TO.N,Net-(BT1--)*%
X195681600Y-68478400D03*
D11*
%TO.P,BT1,1,+*%
%TO.N,Net-(BT1-+)*%
X182881600Y-68478400D03*
X208481600Y-68478400D03*
%TD*%
D12*
%TO.P,VR1,1*%
%TO.N,Net-(BT1-+)*%
X193649600Y-86055200D03*
D13*
%TO.P,VR1,2*%
%TO.N,Net-(SW1-Pad1)*%
X196189600Y-83515200D03*
%TO.P,VR1,3*%
%TO.N,Net-(BT1--)*%
X198729600Y-86055200D03*
%TD*%
D14*
%TO.P,D2,1,K*%
%TO.N,Net-(BT1--)*%
X207974400Y-79000000D03*
D15*
%TO.P,D2,2,A*%
%TO.N,Net-(D2-A)*%
X210514400Y-79000000D03*
%TD*%
D16*
%TO.P,SW1,1,1*%
%TO.N,Net-(SW1-Pad1)*%
X158500000Y-80500000D03*
X165000000Y-80500000D03*
%TO.P,SW1,2,2*%
%TO.N,Net-(R1-Pad2)*%
X158500000Y-85000000D03*
X165000000Y-85000000D03*
%TD*%
%TO.P,SW2,1,1*%
%TO.N,Net-(R2-Pad1)*%
X226084000Y-80500000D03*
X232584000Y-80500000D03*
%TO.P,SW2,2,2*%
%TO.N,Net-(SW1-Pad1)*%
X226084000Y-85000000D03*
X232584000Y-85000000D03*
%TD*%
D14*
%TO.P,D1,1,K*%
%TO.N,Net-(BT1--)*%
X180593200Y-79000000D03*
D15*
%TO.P,D1,2,A*%
%TO.N,Net-(D1-A)*%
X183133200Y-79000000D03*
%TD*%
D16*
%TO.P,SW3,1,1*%
%TO.N,Net-(BT1-+)*%
X192466000Y-104008400D03*
X198966000Y-104008400D03*
%TO.P,SW3,2,2*%
%TO.N,Net-(R3-Pad1)*%
X192466000Y-108508400D03*
X198966000Y-108508400D03*
%TD*%
D17*
%TO.P,M1,1,+*%
%TO.N,Net-(M1--)*%
X207162800Y-99945600D03*
%TD*%
D18*
%TO.P,R2,1*%
%TO.N,Net-(R2-Pad1)*%
X226085400Y-89814400D03*
%TO.P,R2,2*%
%TO.N,Net-(D2-A)*%
X226085400Y-97434400D03*
%TD*%
D17*
%TO.P,M1,1,+*%
%TO.N,Net-(BT1-+)*%
X207000000Y-106934000D03*
%TD*%
D19*
%TO.P,C1,1*%
%TO.N,Net-(BT1-+)*%
X186320313Y-102870000D03*
D18*
%TO.P,C1,2*%
%TO.N,Net-(M1--)*%
X183820313Y-102870000D03*
%TD*%
D20*
%TO.P,Q1,1,E*%
%TO.N,Net-(BT1--)*%
X197265000Y-96355800D03*
D21*
%TO.P,Q1,2,B*%
%TO.N,Net-(Q1-B)*%
X195995000Y-96355800D03*
%TO.P,Q1,3,C*%
%TO.N,Net-(M1--)*%
X194725000Y-96355800D03*
%TD*%
D18*
%TO.P,R1,1*%
%TO.N,Net-(D1-A)*%
X164973000Y-96977200D03*
%TO.P,R1,2*%
%TO.N,Net-(R1-Pad2)*%
X164973000Y-89357200D03*
%TD*%
%TO.P,R3,1*%
%TO.N,Net-(R3-Pad1)*%
X199728000Y-115336800D03*
%TO.P,R3,2*%
%TO.N,Net-(Q1-B)*%
X192108000Y-115336800D03*
%TD*%
D22*
%TO.N,Net-(M1--)*%
X194725000Y-96855800D02*
X194725000Y-96355800D01*
X197814800Y-99945600D02*
X194725000Y-96855800D01*
X207162800Y-99945600D02*
X197814800Y-99945600D01*
%TO.N,Net-(BT1--)*%
X198729600Y-86055200D02*
X198729600Y-94891200D01*
X198729600Y-94891200D02*
X197265000Y-96355800D01*
X207974400Y-79000000D02*
X198735600Y-79000000D01*
X198735600Y-79000000D02*
X198729600Y-78994000D01*
X198729600Y-78994000D02*
X198729600Y-71526400D01*
X198729600Y-71526400D02*
X195681600Y-68478400D01*
X198729600Y-86055200D02*
X198729600Y-78994000D01*
%TO.N,Net-(BT1-+)*%
X182881600Y-73864800D02*
X182881600Y-68478400D01*
X193649600Y-84632800D02*
X182881600Y-73864800D01*
X193649600Y-86055200D02*
X193649600Y-84632800D01*
X193649600Y-86055200D02*
X192466000Y-87238800D01*
X192466000Y-87238800D02*
X192466000Y-104008400D01*
%TO.N,Net-(BT1--)*%
X191414400Y-64211200D02*
X195681600Y-68478400D01*
X179882800Y-64211200D02*
X191414400Y-64211200D01*
X178866800Y-77273600D02*
X178866800Y-65227200D01*
X178866800Y-65227200D02*
X179882800Y-64211200D01*
%TO.N,Net-(BT1-+)*%
X192466000Y-104104400D02*
X192430400Y-104140000D01*
X192466000Y-104008400D02*
X192466000Y-104104400D01*
X186320313Y-102870000D02*
X191327600Y-102870000D01*
X199064400Y-104008400D02*
X199085200Y-103987600D01*
X199085200Y-103987600D02*
X204053600Y-103987600D01*
X198966000Y-104008400D02*
X199064400Y-104008400D01*
X204053600Y-103987600D02*
X207000000Y-106934000D01*
X191327600Y-102870000D02*
X192466000Y-104008400D01*
X192466000Y-104008400D02*
X198966000Y-104008400D01*
%TO.N,Net-(BT1--)*%
X180593200Y-79000000D02*
X178866800Y-77273600D01*
%TO.N,Net-(M1--)*%
X183820313Y-102870000D02*
X183997600Y-102870000D01*
X183997600Y-102870000D02*
X184150000Y-103022400D01*
%TO.N,Net-(D1-A)*%
X165896400Y-97000000D02*
X164995800Y-97000000D01*
X164995800Y-97000000D02*
X164973000Y-96977200D01*
X165896400Y-97000000D02*
X183133200Y-79763200D01*
%TO.N,Net-(D2-A)*%
X210514400Y-79000000D02*
X210514400Y-81863400D01*
X210514400Y-81863400D02*
X226085400Y-97434400D01*
%TO.N,Net-(R1-Pad2)*%
X165000000Y-88390400D02*
X165000000Y-85000000D01*
X164973000Y-89357200D02*
X164973000Y-88417400D01*
X158500000Y-85000000D02*
X165000000Y-85000000D01*
X164973000Y-88417400D02*
X165000000Y-88390400D01*
%TO.N,Net-(R2-Pad1)*%
X227385000Y-81801000D02*
X227385000Y-88514800D01*
X226084000Y-80500000D02*
X227385000Y-81801000D01*
X226084000Y-80500000D02*
X232584000Y-80500000D01*
X227385000Y-88514800D02*
X226085400Y-89814400D01*
%TO.N,Net-(R3-Pad1)*%
X192466000Y-108508400D02*
X198966000Y-108508400D01*
X199728000Y-109270400D02*
X198966000Y-108508400D01*
X199728000Y-115336800D02*
X199728000Y-109270400D01*
%TD*%
M02*
